<mxfile host="app.diagrams.net" modified="2023-12-16T11:44:40.451Z" agent="Mozilla/5.0 (Windows NT 10.0; Win64; x64) AppleWebKit/537.36 (KHTML, like Gecko) Chrome/120.0.0.0 Safari/537.36" etag="yP1QgGNZ_iKkXCoRhr6U" version="22.1.11" type="github">
  <diagram name="Page-1" id="mxWDdIDW4dankNBHs9l7">
    <mxGraphModel dx="930" dy="589" grid="1" gridSize="10" guides="1" tooltips="1" connect="1" arrows="1" fold="1" page="1" pageScale="1" pageWidth="850" pageHeight="1100" math="0" shadow="0">
      <root>
        <mxCell id="0" />
        <mxCell id="1" parent="0" />
        <mxCell id="xGkZ8IlFdrhSB1yF38v9-1" value="AWS Cloud" style="points=[[0,0],[0.25,0],[0.5,0],[0.75,0],[1,0],[1,0.25],[1,0.5],[1,0.75],[1,1],[0.75,1],[0.5,1],[0.25,1],[0,1],[0,0.75],[0,0.5],[0,0.25]];outlineConnect=0;gradientColor=none;html=1;whiteSpace=wrap;fontSize=12;fontStyle=0;container=1;pointerEvents=0;collapsible=0;recursiveResize=0;shape=mxgraph.aws4.group;grIcon=mxgraph.aws4.group_aws_cloud_alt;strokeColor=#232F3E;fillColor=none;verticalAlign=top;align=left;spacingLeft=30;fontColor=#232F3E;dashed=0;" vertex="1" parent="1">
          <mxGeometry x="40" y="240" width="760" height="680" as="geometry" />
        </mxCell>
        <mxCell id="xGkZ8IlFdrhSB1yF38v9-23" style="edgeStyle=orthogonalEdgeStyle;rounded=0;orthogonalLoop=1;jettySize=auto;html=1;exitX=0.5;exitY=1;exitDx=0;exitDy=0;exitPerimeter=0;startArrow=none;startFill=0;endArrow=none;endFill=0;" edge="1" parent="1" source="xGkZ8IlFdrhSB1yF38v9-2" target="xGkZ8IlFdrhSB1yF38v9-8">
          <mxGeometry relative="1" as="geometry" />
        </mxCell>
        <mxCell id="xGkZ8IlFdrhSB1yF38v9-2" value="" style="outlineConnect=0;dashed=0;verticalLabelPosition=bottom;verticalAlign=top;align=center;html=1;shape=mxgraph.aws3.internet_2;fillColor=#D2D3D3;gradientColor=none;" vertex="1" parent="1">
          <mxGeometry x="400" y="110" width="79.5" height="54" as="geometry" />
        </mxCell>
        <mxCell id="xGkZ8IlFdrhSB1yF38v9-3" value="VPC" style="points=[[0,0],[0.25,0],[0.5,0],[0.75,0],[1,0],[1,0.25],[1,0.5],[1,0.75],[1,1],[0.75,1],[0.5,1],[0.25,1],[0,1],[0,0.75],[0,0.5],[0,0.25]];outlineConnect=0;gradientColor=none;html=1;whiteSpace=wrap;fontSize=12;fontStyle=0;container=1;pointerEvents=0;collapsible=0;recursiveResize=0;shape=mxgraph.aws4.group;grIcon=mxgraph.aws4.group_vpc2;strokeColor=#8C4FFF;fillColor=none;verticalAlign=top;align=left;spacingLeft=30;fontColor=#AAB7B8;dashed=0;" vertex="1" parent="1">
          <mxGeometry x="80" y="320" width="680" height="560" as="geometry" />
        </mxCell>
        <mxCell id="xGkZ8IlFdrhSB1yF38v9-10" value="" style="outlineConnect=0;dashed=0;verticalLabelPosition=bottom;verticalAlign=top;align=center;html=1;shape=mxgraph.aws3.router;fillColor=#F58534;gradientColor=none;" vertex="1" parent="xGkZ8IlFdrhSB1yF38v9-3">
          <mxGeometry x="336.8" y="70" width="46.88" height="50" as="geometry" />
        </mxCell>
        <mxCell id="xGkZ8IlFdrhSB1yF38v9-8" value="" style="outlineConnect=0;dashed=0;verticalLabelPosition=bottom;verticalAlign=top;align=center;html=1;shape=mxgraph.aws3.internet_gateway;fillColor=#F58536;gradientColor=none;" vertex="1" parent="xGkZ8IlFdrhSB1yF38v9-3">
          <mxGeometry x="340.74" y="-20" width="39" height="40" as="geometry" />
        </mxCell>
        <mxCell id="xGkZ8IlFdrhSB1yF38v9-24" style="edgeStyle=orthogonalEdgeStyle;rounded=0;orthogonalLoop=1;jettySize=auto;html=1;exitX=0.5;exitY=1;exitDx=0;exitDy=0;exitPerimeter=0;entryX=0.5;entryY=0;entryDx=0;entryDy=0;entryPerimeter=0;endArrow=none;endFill=0;" edge="1" parent="xGkZ8IlFdrhSB1yF38v9-3" source="xGkZ8IlFdrhSB1yF38v9-8" target="xGkZ8IlFdrhSB1yF38v9-10">
          <mxGeometry relative="1" as="geometry" />
        </mxCell>
        <mxCell id="xGkZ8IlFdrhSB1yF38v9-5" value="Public subnet" style="points=[[0,0],[0.25,0],[0.5,0],[0.75,0],[1,0],[1,0.25],[1,0.5],[1,0.75],[1,1],[0.75,1],[0.5,1],[0.25,1],[0,1],[0,0.75],[0,0.5],[0,0.25]];outlineConnect=0;gradientColor=none;html=1;whiteSpace=wrap;fontSize=12;fontStyle=0;container=1;pointerEvents=0;collapsible=0;recursiveResize=0;shape=mxgraph.aws4.group;grIcon=mxgraph.aws4.group_security_group;grStroke=0;strokeColor=#7AA116;fillColor=#F2F6E8;verticalAlign=top;align=left;spacingLeft=30;fontColor=#248814;dashed=0;" vertex="1" parent="1">
          <mxGeometry x="480" y="480" width="240" height="360" as="geometry" />
        </mxCell>
        <mxCell id="xGkZ8IlFdrhSB1yF38v9-12" value="" style="outlineConnect=0;dashed=0;verticalLabelPosition=bottom;verticalAlign=top;align=center;html=1;shape=mxgraph.aws3.route_table;fillColor=#F58536;gradientColor=none;" vertex="1" parent="xGkZ8IlFdrhSB1yF38v9-5">
          <mxGeometry x="110" y="-17" width="40" height="40" as="geometry" />
        </mxCell>
        <mxCell id="xGkZ8IlFdrhSB1yF38v9-14" value="" style="outlineConnect=0;dashed=0;verticalLabelPosition=bottom;verticalAlign=top;align=center;html=1;shape=mxgraph.aws3.ec2;fillColor=#F58534;gradientColor=none;" vertex="1" parent="xGkZ8IlFdrhSB1yF38v9-5">
          <mxGeometry x="20" y="75" width="40" height="50" as="geometry" />
        </mxCell>
        <mxCell id="xGkZ8IlFdrhSB1yF38v9-15" value="" style="outlineConnect=0;dashed=0;verticalLabelPosition=bottom;verticalAlign=top;align=center;html=1;shape=mxgraph.aws3.vpc_nat_gateway;fillColor=#F58534;gradientColor=none;" vertex="1" parent="xGkZ8IlFdrhSB1yF38v9-5">
          <mxGeometry x="20" y="155" width="54.5" height="50" as="geometry" />
        </mxCell>
        <mxCell id="xGkZ8IlFdrhSB1yF38v9-7" value="Private subnet" style="points=[[0,0],[0.25,0],[0.5,0],[0.75,0],[1,0],[1,0.25],[1,0.5],[1,0.75],[1,1],[0.75,1],[0.5,1],[0.25,1],[0,1],[0,0.75],[0,0.5],[0,0.25]];outlineConnect=0;gradientColor=none;html=1;whiteSpace=wrap;fontSize=12;fontStyle=0;container=1;pointerEvents=0;collapsible=0;recursiveResize=0;shape=mxgraph.aws4.group;grIcon=mxgraph.aws4.group_security_group;grStroke=0;strokeColor=#00A4A6;fillColor=#E6F6F7;verticalAlign=top;align=left;spacingLeft=30;fontColor=#147EBA;dashed=0;" vertex="1" parent="1">
          <mxGeometry x="120" y="480" width="280" height="360" as="geometry" />
        </mxCell>
        <mxCell id="xGkZ8IlFdrhSB1yF38v9-11" value="" style="outlineConnect=0;dashed=0;verticalLabelPosition=bottom;verticalAlign=top;align=center;html=1;shape=mxgraph.aws3.route_table;fillColor=#F58536;gradientColor=none;" vertex="1" parent="xGkZ8IlFdrhSB1yF38v9-7">
          <mxGeometry x="120" y="-18" width="40" height="40" as="geometry" />
        </mxCell>
        <mxCell id="xGkZ8IlFdrhSB1yF38v9-13" value="" style="outlineConnect=0;dashed=0;verticalLabelPosition=bottom;verticalAlign=top;align=center;html=1;shape=mxgraph.aws3.ec2;fillColor=#F58534;gradientColor=none;" vertex="1" parent="xGkZ8IlFdrhSB1yF38v9-7">
          <mxGeometry x="10" y="70" width="40" height="50" as="geometry" />
        </mxCell>
        <mxCell id="xGkZ8IlFdrhSB1yF38v9-25" style="edgeStyle=orthogonalEdgeStyle;rounded=0;orthogonalLoop=1;jettySize=auto;html=1;exitX=1;exitY=0.5;exitDx=0;exitDy=0;exitPerimeter=0;entryX=0.5;entryY=0;entryDx=0;entryDy=0;entryPerimeter=0;endArrow=none;endFill=0;" edge="1" parent="1" source="xGkZ8IlFdrhSB1yF38v9-10" target="xGkZ8IlFdrhSB1yF38v9-12">
          <mxGeometry relative="1" as="geometry" />
        </mxCell>
        <mxCell id="xGkZ8IlFdrhSB1yF38v9-26" style="rounded=0;orthogonalLoop=1;jettySize=auto;html=1;exitX=1;exitY=0.5;exitDx=0;exitDy=0;exitPerimeter=0;entryX=0.145;entryY=0.145;entryDx=0;entryDy=0;entryPerimeter=0;" edge="1" parent="1" source="xGkZ8IlFdrhSB1yF38v9-11" target="xGkZ8IlFdrhSB1yF38v9-15">
          <mxGeometry relative="1" as="geometry" />
        </mxCell>
        <mxCell id="xGkZ8IlFdrhSB1yF38v9-18" value="" style="edgeStyle=orthogonalEdgeStyle;html=1;endArrow=openThin;elbow=vertical;startArrow=openThin;startFill=0;endFill=0;strokeColor=#545B64;rounded=0;" edge="1" parent="1" source="xGkZ8IlFdrhSB1yF38v9-7" target="xGkZ8IlFdrhSB1yF38v9-5">
          <mxGeometry width="100" relative="1" as="geometry">
            <mxPoint x="390.24" y="740" as="sourcePoint" />
            <mxPoint x="490.24" y="740" as="targetPoint" />
          </mxGeometry>
        </mxCell>
      </root>
    </mxGraphModel>
  </diagram>
</mxfile>
